<?xml version="1.0" encoding="utf-8"?>
<!-- Generator: Adobe Illustrator 15.1.0, SVG Export Plug-In . SVG Version: 6.00 Build 0)  -->
<!DOCTYPE svg PUBLIC "-//W3C//DTD SVG 1.1//EN" "http://www.w3.org/Graphics/SVG/1.1/DTD/svg11.dtd">
<svg version="1.1" id="Calque_1" xmlns="http://www.w3.org/2000/svg" xmlns:xlink="http://www.w3.org/1999/xlink" x="0px" y="0px"
	 width="152.779px" height="73.21px" viewBox="39.528 14.41 152.779 73.21" enable-background="new 39.528 14.41 152.779 73.21"
	 xml:space="preserve">
<g id="typo" display="none">
	<g display="inline">
		<text transform="matrix(1 0 0 1 18.4897 79.2441)" fill="#FFFFFF" font-family="'DOCK11-Heavy'" font-size="30.5657">G</text>
		<text transform="matrix(1 0 0 1 43.3394 79.2441)" fill="#FFFFFF" font-family="'DOCK11-Heavy'" font-size="30.5657">L</text>
		<text transform="matrix(1 0 0 1 59.1401 79.2441)" fill="#FFFFFF" font-family="'DOCK11-Heavy'" font-size="30.5657">OBAL</text>
		<text transform="matrix(1 0 0 1 146.2686 79.2402)" fill="#A9C944" font-family="'GothamHTF-Black'" font-size="30.549">VELO</text>
	</g>
</g>
<g>
	<g>
		<defs>
			<path id="SVGID_1_" d="M114.848,73.945c0-0.985,0.802-1.779,1.786-1.779c0.986,0,1.785,0.794,1.785,1.779
				c0,0.983-0.799,1.784-1.785,1.784C115.65,75.729,114.848,74.929,114.848,73.945 M141.902,62.731
				c-3.406,7.416-9.931,13.097-17.901,15.371c-0.637-0.219-1.218-0.58-1.686-1.048c-0.801-0.8-1.289-1.898-1.289-3.108
				c0-2.424-1.962-4.393-4.392-4.393c-2.423,0-4.392,1.969-4.392,4.393c0,2.066-1.431,3.795-3.35,4.264
				c-8.147-2.197-14.834-7.941-18.291-15.478h-5.767c0.029,0.078,0.056,0.147,0.084,0.225l-1.991,2.466
				c0.015,0.021,0.021,0.042,0.036,0.071l0.977,2.054c0.008,0.014,0.015,0.021,0.015,0.028l3.188,0.043
				c0.539,0.941,1.127,1.848,1.75,2.733l-1.311,2.883l1.558,1.871l3.088-0.753c0.752,0.767,1.53,1.496,2.346,2.19l-0.553,3.117
				l1.956,1.424c0.015,0.009,0.021,0.016,0.035,0.021l2.798-1.494c0.907,0.561,1.843,1.069,2.798,1.538l0.242,3.151l2.302,0.908
				l2.337-2.142c1.006,0.312,2.034,0.574,3.083,0.795l1.013,2.989h0.007l2.458,0.305l1.729-2.649
				c0.524,0.021,1.056,0.035,1.587,0.035c0.53,0,1.056-0.014,1.579-0.035l1.728,2.649l2.417-0.299c0.013,0,0.036,0,0.057-0.006
				l1.012-2.996c1.049-0.214,2.076-0.476,3.081-0.786l2.34,2.14c0.105-0.037,0.212-0.07,0.316-0.115l1.978-0.793l0.241-3.15
				c0.957-0.468,1.893-0.979,2.798-1.538l2.799,1.495c0.021-0.007,0.042-0.029,0.07-0.043l1.884-1.368
				c0.016-0.014,0.029-0.021,0.043-0.035l-0.559-3.117c0.814-0.693,1.601-1.424,2.344-2.19l3.09,0.753l1.559-1.871l-1.312-2.883
				c0.632-0.878,1.213-1.792,1.757-2.733l3.181-0.043c0.008-0.007,0.008-0.014,0.015-0.028l1.014-2.132l-1.983-2.466
				c0.027-0.071,0.055-0.14,0.077-0.22h-5.987V62.731z M114.848,28.253c0-0.986,0.802-1.786,1.786-1.786
				c0.986,0,1.785,0.8,1.785,1.786c0,0.985-0.799,1.777-1.785,1.777C115.65,30.03,114.848,29.238,114.848,28.253 M115.267,14.41
				l-1.381,2.849c-1.19,0.084-2.366,0.233-3.514,0.438l-2.054-2.416l-2.118,0.546l-0.63,3.11c-1.126,0.375-2.218,0.814-3.288,1.304
				l-2.579-1.828l-1.892,1.042c-0.014,0.014-0.028,0.021-0.042,0.029l0.163,3.167c-0.985,0.644-1.927,1.332-2.834,2.068L92.151,23.6
				l-1.573,1.473c-0.014,0.014-0.036,0.035-0.049,0.05l0.941,3.024c-0.786,0.857-1.522,1.757-2.209,2.693l-3.139-0.362
				c-0.015,0.021-0.029,0.043-0.042,0.064l-1.163,1.842l1.666,2.698c-0.538,1.015-1.02,2.055-1.452,3.125l-3.132,0.439
				c-0.015,0.014-0.015,0.035-0.021,0.057l-0.426,1.324h8.686c3.273-7.764,9.925-13.75,18.107-16.137
				c2.197,0.248,3.896,2.104,3.896,4.363c0,2.423,1.969,4.393,4.392,4.393c2.43,0,4.393-1.97,4.393-4.393
				c0-1.218,0.487-2.317,1.288-3.11c0.574-0.574,1.311-0.986,2.132-1.176c8.056,2.444,14.587,8.388,17.817,16.059h8.903
				l-0.424-1.324c0-0.022-0.009-0.043-0.022-0.057l-3.131-0.439c-0.432-1.069-0.914-2.11-1.451-3.125l1.664-2.698l-1.162-1.842
				c-0.017-0.021-0.027-0.043-0.036-0.064l-3.145,0.362c-0.688-0.935-1.425-1.835-2.211-2.693l0.942-3.024
				c-0.015-0.015-0.027-0.036-0.05-0.05L140.57,23.6l-2.941,1.119c-0.904-0.736-1.854-1.424-2.841-2.068l0.164-3.167
				c-0.029-0.016-0.065-0.036-0.093-0.05l-1.835-1.02l-2.585,1.828c-1.062-0.488-2.162-0.927-3.288-1.303l-0.63-3.11l-2.068-0.532
				c-0.015-0.006-0.029-0.006-0.05-0.015l-2.048,2.416c-1.154-0.206-2.322-0.354-3.513-0.438l-1.389-2.848L115.267,14.41
				L115.267,14.41z"/>
		</defs>
		<linearGradient id="SVGID_2_" gradientUnits="userSpaceOnUse" x1="46.9814" y1="52.1187" x2="187.5877" y2="49.4557">
			<stop  offset="0" style="stop-color:#858585"/>
			<stop  offset="1" style="stop-color:#595959"/>
		</linearGradient>
		<use xlink:href="#SVGID_1_"  overflow="visible" fill="url(#SVGID_2_)"/>
		<clipPath id="SVGID_3_">
			<use xlink:href="#SVGID_1_"  overflow="visible"/>
		</clipPath>
		
			<linearGradient id="SVGID_4_" gradientUnits="userSpaceOnUse" x1="63.9233" y1="92.4258" x2="204.4762" y2="89.7638" gradientTransform="matrix(98.27 0 0 98.27 20904.6543 -9544.5469)">
			<stop  offset="0" style="stop-color:#858585"/>
			<stop  offset="1" style="stop-color:#595959"/>
		</linearGradient>
		<rect x="81.553" y="14.41" clip-path="url(#SVGID_3_)" fill="url(#SVGID_4_)" width="69.616" height="72.745"/>
	</g>
	<linearGradient id="SVGID_5_" gradientUnits="userSpaceOnUse" x1="46.9814" y1="52.1187" x2="187.5877" y2="49.4557">
		<stop  offset="0" style="stop-color:#858585"/>
		<stop  offset="1" style="stop-color:#595959"/>
	</linearGradient>
	<path id="SVGID_16_" fill="url(#SVGID_5_)" d="M114.848,73.945c0-0.985,0.802-1.779,1.786-1.779c0.986,0,1.785,0.794,1.785,1.779
		c0,0.983-0.799,1.784-1.785,1.784C115.65,75.729,114.848,74.929,114.848,73.945 M141.902,62.731
		c-3.406,7.416-9.931,13.097-17.901,15.371c-0.637-0.219-1.218-0.58-1.686-1.048c-0.801-0.8-1.289-1.898-1.289-3.108
		c0-2.424-1.962-4.393-4.392-4.393c-2.423,0-4.392,1.969-4.392,4.393c0,2.066-1.431,3.795-3.35,4.264
		c-8.147-2.197-14.834-7.941-18.291-15.478h-5.767c0.029,0.078,0.056,0.147,0.084,0.225l-1.991,2.466
		c0.015,0.021,0.021,0.042,0.036,0.071l0.977,2.054c0.008,0.014,0.015,0.021,0.015,0.028l3.188,0.043
		c0.539,0.941,1.127,1.848,1.75,2.733l-1.311,2.883l1.558,1.871l3.088-0.753c0.752,0.767,1.53,1.496,2.346,2.19l-0.553,3.117
		l1.956,1.424c0.015,0.009,0.021,0.016,0.035,0.021l2.798-1.494c0.907,0.561,1.843,1.069,2.798,1.538l0.242,3.151l2.302,0.908
		l2.337-2.142c1.006,0.312,2.034,0.574,3.083,0.795l1.013,2.989h0.007l2.458,0.305l1.729-2.649c0.524,0.021,1.056,0.035,1.587,0.035
		c0.53,0,1.056-0.014,1.579-0.035l1.728,2.649l2.417-0.299c0.013,0,0.036,0,0.057-0.006l1.012-2.996
		c1.049-0.214,2.076-0.476,3.081-0.786l2.34,2.14c0.105-0.037,0.212-0.07,0.316-0.115l1.978-0.793l0.241-3.15
		c0.957-0.468,1.893-0.979,2.798-1.538l2.799,1.495c0.021-0.007,0.042-0.029,0.07-0.043l1.884-1.368
		c0.016-0.014,0.029-0.021,0.043-0.035l-0.559-3.117c0.814-0.693,1.601-1.424,2.344-2.19l3.09,0.753l1.559-1.871l-1.312-2.883
		c0.632-0.878,1.213-1.792,1.757-2.733l3.181-0.043c0.008-0.007,0.008-0.014,0.015-0.028l1.014-2.132l-1.983-2.466
		c0.027-0.071,0.055-0.14,0.077-0.22h-5.987V62.731z M114.848,28.253c0-0.986,0.802-1.786,1.786-1.786
		c0.986,0,1.785,0.8,1.785,1.786c0,0.985-0.799,1.777-1.785,1.777C115.65,30.03,114.848,29.238,114.848,28.253 M115.267,14.41
		l-1.381,2.849c-1.19,0.084-2.366,0.233-3.514,0.438l-2.054-2.416l-2.118,0.546l-0.63,3.11c-1.126,0.375-2.218,0.814-3.288,1.304
		l-2.579-1.828l-1.892,1.042c-0.014,0.014-0.028,0.021-0.042,0.029l0.163,3.167c-0.985,0.644-1.927,1.332-2.834,2.068L92.151,23.6
		l-1.573,1.473c-0.014,0.014-0.036,0.035-0.049,0.05l0.941,3.024c-0.786,0.857-1.522,1.757-2.209,2.693l-3.139-0.362
		c-0.015,0.021-0.029,0.043-0.042,0.064l-1.163,1.842l1.666,2.698c-0.538,1.015-1.02,2.055-1.452,3.125l-3.132,0.439
		c-0.015,0.014-0.015,0.035-0.021,0.057l-0.426,1.324h8.686c3.273-7.764,9.925-13.75,18.107-16.137
		c2.197,0.248,3.896,2.104,3.896,4.363c0,2.423,1.969,4.393,4.392,4.393c2.43,0,4.393-1.97,4.393-4.393
		c0-1.218,0.487-2.317,1.288-3.11c0.574-0.574,1.311-0.986,2.132-1.176c8.056,2.444,14.587,8.388,17.817,16.059h8.903l-0.424-1.324
		c0-0.022-0.009-0.043-0.022-0.057l-3.131-0.439c-0.432-1.069-0.914-2.11-1.451-3.125l1.664-2.698l-1.162-1.842
		c-0.017-0.021-0.027-0.043-0.036-0.064l-3.145,0.362c-0.688-0.935-1.425-1.835-2.211-2.693l0.942-3.024
		c-0.015-0.015-0.027-0.036-0.05-0.05L140.57,23.6l-2.941,1.119c-0.904-0.736-1.854-1.424-2.841-2.068l0.164-3.167
		c-0.029-0.016-0.065-0.036-0.093-0.05l-1.835-1.02l-2.585,1.828c-1.062-0.488-2.162-0.927-3.288-1.303l-0.63-3.11l-2.068-0.532
		c-0.015-0.006-0.029-0.006-0.05-0.015l-2.048,2.416c-1.154-0.206-2.322-0.354-3.513-0.438l-1.389-2.848L115.267,14.41
		L115.267,14.41z"/>
	<g>
		<defs>
			<path id="SVGID_6_" d="M114.848,73.945c0-0.985,0.802-1.779,1.786-1.779c0.986,0,1.785,0.794,1.785,1.779
				c0,0.983-0.799,1.784-1.785,1.784C115.65,75.729,114.848,74.929,114.848,73.945 M141.902,62.731
				c-3.406,7.416-9.931,13.097-17.901,15.371c-0.637-0.219-1.218-0.58-1.686-1.048c-0.801-0.8-1.289-1.898-1.289-3.108
				c0-2.424-1.962-4.393-4.392-4.393c-2.423,0-4.392,1.969-4.392,4.393c0,2.066-1.431,3.795-3.35,4.264
				c-8.147-2.197-14.834-7.941-18.291-15.478h-5.767c0.029,0.078,0.056,0.147,0.084,0.225l-1.991,2.466
				c0.015,0.021,0.021,0.042,0.036,0.071l0.977,2.054c0.008,0.014,0.015,0.021,0.015,0.028l3.188,0.043
				c0.539,0.941,1.127,1.848,1.75,2.733l-1.311,2.883l1.558,1.871l3.088-0.753c0.752,0.767,1.53,1.496,2.346,2.19l-0.553,3.117
				l1.956,1.424c0.015,0.009,0.021,0.016,0.035,0.021l2.798-1.494c0.907,0.561,1.843,1.069,2.798,1.538l0.242,3.151l2.302,0.908
				l2.337-2.142c1.006,0.312,2.034,0.574,3.083,0.795l1.013,2.989h0.007l2.458,0.305l1.729-2.649
				c0.524,0.021,1.056,0.035,1.587,0.035c0.53,0,1.056-0.014,1.579-0.035l1.728,2.649l2.417-0.299c0.013,0,0.036,0,0.057-0.006
				l1.012-2.996c1.049-0.214,2.076-0.476,3.081-0.786l2.34,2.14c0.105-0.037,0.212-0.07,0.316-0.115l1.978-0.793l0.241-3.15
				c0.957-0.468,1.893-0.979,2.798-1.538l2.799,1.495c0.021-0.007,0.042-0.029,0.07-0.043l1.884-1.368
				c0.016-0.014,0.029-0.021,0.043-0.035l-0.559-3.117c0.814-0.693,1.601-1.424,2.344-2.19l3.09,0.753l1.559-1.871l-1.312-2.883
				c0.632-0.878,1.213-1.792,1.757-2.733l3.181-0.043c0.008-0.007,0.008-0.014,0.015-0.028l1.014-2.132l-1.983-2.466
				c0.027-0.071,0.055-0.14,0.077-0.22h-5.987V62.731z M114.848,28.253c0-0.986,0.802-1.786,1.786-1.786
				c0.986,0,1.785,0.8,1.785,1.786c0,0.985-0.799,1.777-1.785,1.777C115.65,30.03,114.848,29.238,114.848,28.253 M115.267,14.41
				l-1.381,2.849c-1.19,0.084-2.366,0.233-3.514,0.438l-2.054-2.416l-2.118,0.546l-0.63,3.11c-1.126,0.375-2.218,0.814-3.288,1.304
				l-2.579-1.828l-1.892,1.042c-0.014,0.014-0.028,0.021-0.042,0.029l0.163,3.167c-0.985,0.644-1.927,1.332-2.834,2.068L92.151,23.6
				l-1.573,1.473c-0.014,0.014-0.036,0.035-0.049,0.05l0.941,3.024c-0.786,0.857-1.522,1.757-2.209,2.693l-3.139-0.362
				c-0.015,0.021-0.029,0.043-0.042,0.064l-1.163,1.842l1.666,2.698c-0.538,1.015-1.02,2.055-1.452,3.125l-3.132,0.439
				c-0.015,0.014-0.015,0.035-0.021,0.057l-0.426,1.324h8.686c3.273-7.764,9.925-13.75,18.107-16.137
				c2.197,0.248,3.896,2.104,3.896,4.363c0,2.423,1.969,4.393,4.392,4.393c2.43,0,4.393-1.97,4.393-4.393
				c0-1.218,0.487-2.317,1.288-3.11c0.574-0.574,1.311-0.986,2.132-1.176c8.056,2.444,14.587,8.388,17.817,16.059h8.903
				l-0.424-1.324c0-0.022-0.009-0.043-0.022-0.057l-3.131-0.439c-0.432-1.069-0.914-2.11-1.451-3.125l1.664-2.698l-1.162-1.842
				c-0.017-0.021-0.027-0.043-0.036-0.064l-3.145,0.362c-0.688-0.935-1.425-1.835-2.211-2.693l0.942-3.024
				c-0.015-0.015-0.027-0.036-0.05-0.05L140.57,23.6l-2.941,1.119c-0.904-0.736-1.854-1.424-2.841-2.068l0.164-3.167
				c-0.029-0.016-0.065-0.036-0.093-0.05l-1.835-1.02l-2.585,1.828c-1.062-0.488-2.162-0.927-3.288-1.303l-0.63-3.11l-2.068-0.532
				c-0.015-0.006-0.029-0.006-0.05-0.015l-2.048,2.416c-1.154-0.206-2.322-0.354-3.513-0.438l-1.389-2.848L115.267,14.41
				L115.267,14.41z"/>
		</defs>
		<linearGradient id="SVGID_7_" gradientUnits="userSpaceOnUse" x1="46.9814" y1="52.1187" x2="187.5877" y2="49.4557">
			<stop  offset="0" style="stop-color:#858585"/>
			<stop  offset="1" style="stop-color:#595959"/>
		</linearGradient>
		<use xlink:href="#SVGID_6_"  overflow="visible" fill="url(#SVGID_7_)"/>
		<clipPath id="SVGID_8_">
			<use xlink:href="#SVGID_6_"  overflow="visible"/>
		</clipPath>
		<linearGradient id="SVGID_9_" gradientUnits="userSpaceOnUse" x1="46.9805" y1="52.0972" x2="187.5869" y2="49.4342">
			<stop  offset="0" style="stop-color:#858585"/>
			<stop  offset="1" style="stop-color:#595959"/>
		</linearGradient>
		<rect x="81.553" y="14.41" clip-path="url(#SVGID_8_)" fill="url(#SVGID_9_)" width="69.616" height="72.745"/>
	</g>
	<g>
		<defs>
			<path id="SVGID_10_" d="M94.454,40.026c-0.049,0.091-0.093,0.184-0.135,0.276c1.078-0.014,2.154-0.042,3.224-0.071
				c0.044-0.071,0.078-0.142,0.127-0.205c2.523-4.271,6.263-7.736,10.747-9.911v-3.004C102.261,29.443,97.245,34.104,94.454,40.026"
				/>
		</defs>
		<linearGradient id="SVGID_11_" gradientUnits="userSpaceOnUse" x1="46.6519" y1="34.7437" x2="187.2566" y2="32.0807">
			<stop  offset="0" style="stop-color:#858585"/>
			<stop  offset="1" style="stop-color:#595959"/>
		</linearGradient>
		<use xlink:href="#SVGID_10_"  overflow="visible" fill="url(#SVGID_11_)"/>
		<clipPath id="SVGID_12_">
			<use xlink:href="#SVGID_10_"  overflow="visible"/>
		</clipPath>
		<linearGradient id="SVGID_13_" gradientUnits="userSpaceOnUse" x1="46.6499" y1="34.7427" x2="187.26" y2="32.0796">
			<stop  offset="0" style="stop-color:#858585"/>
			<stop  offset="1" style="stop-color:#595959"/>
		</linearGradient>
		<rect x="94.319" y="27.111" clip-path="url(#SVGID_12_)" fill="url(#SVGID_13_)" width="14.098" height="13.191"/>
	</g>
	<g>
		<defs>
			<path id="SVGID_14_" d="M123.853,30.116c4.492,2.174,8.231,5.639,10.755,9.911c0.048,0.063,0.084,0.134,0.127,0.205
				c1.069,0.028,2.146,0.057,3.223,0.071c-0.043-0.092-0.085-0.185-0.134-0.276c-2.792-5.922-7.807-10.583-13.97-12.915
				L123.853,30.116L123.853,30.116z"/>
		</defs>
		<linearGradient id="SVGID_15_" gradientUnits="userSpaceOnUse" x1="46.6606" y1="35.3022" x2="187.2694" y2="32.6392">
			<stop  offset="0" style="stop-color:#858585"/>
			<stop  offset="1" style="stop-color:#595959"/>
		</linearGradient>
		<use xlink:href="#SVGID_14_"  overflow="visible" fill="url(#SVGID_15_)"/>
		<clipPath id="SVGID_17_">
			<use xlink:href="#SVGID_14_"  overflow="visible"/>
		</clipPath>
		<linearGradient id="SVGID_19_" gradientUnits="userSpaceOnUse" x1="46.6626" y1="35.3022" x2="187.2687" y2="32.6393">
			<stop  offset="0" style="stop-color:#858585"/>
			<stop  offset="1" style="stop-color:#595959"/>
		</linearGradient>
		<rect x="123.853" y="27.111" clip-path="url(#SVGID_17_)" fill="url(#SVGID_19_)" width="14.104" height="13.191"/>
	</g>
	<g>
		<defs>
			<path id="SVGID_21_" d="M94.49,62.731c2.797,5.885,7.792,10.519,13.927,12.843V72.57c-4.456-2.161-8.183-5.603-10.704-9.839
				c-0.063-0.093-0.113-0.186-0.17-0.277c-1.069-0.029-2.146-0.057-3.224-0.072C94.376,62.504,94.426,62.616,94.49,62.731"/>
		</defs>
		<linearGradient id="SVGID_23_" gradientUnits="userSpaceOnUse" x1="47.3184" y1="70.002" x2="187.9261" y2="67.3389">
			<stop  offset="0" style="stop-color:#858585"/>
			<stop  offset="1" style="stop-color:#595959"/>
		</linearGradient>
		<use xlink:href="#SVGID_21_"  overflow="visible" fill="url(#SVGID_23_)"/>
		<clipPath id="SVGID_25_">
			<use xlink:href="#SVGID_21_"  overflow="visible"/>
		</clipPath>
		<linearGradient id="SVGID_26_" gradientUnits="userSpaceOnUse" x1="47.3154" y1="70.0029" x2="187.9307" y2="67.3398">
			<stop  offset="0" style="stop-color:#858585"/>
			<stop  offset="1" style="stop-color:#595959"/>
		</linearGradient>
		<rect x="94.319" y="62.383" clip-path="url(#SVGID_25_)" fill="url(#SVGID_26_)" width="14.098" height="13.191"/>
	</g>
	<g>
		<defs>
			<path id="SVGID_27_" d="M134.734,62.454c-0.058,0.094-0.105,0.186-0.17,0.277c-2.522,4.237-6.247,7.678-10.711,9.84v3.004
				c6.143-2.324,11.137-6.958,13.935-12.844c0.063-0.114,0.111-0.226,0.169-0.347C136.881,62.397,135.802,62.426,134.734,62.454"/>
		</defs>
		<linearGradient id="SVGID_28_" gradientUnits="userSpaceOnUse" x1="47.3306" y1="70.5605" x2="187.9373" y2="67.8975">
			<stop  offset="0" style="stop-color:#858585"/>
			<stop  offset="1" style="stop-color:#595959"/>
		</linearGradient>
		<use xlink:href="#SVGID_27_"  overflow="visible" fill="url(#SVGID_28_)"/>
		<clipPath id="SVGID_29_">
			<use xlink:href="#SVGID_27_"  overflow="visible"/>
		</clipPath>
		<linearGradient id="SVGID_30_" gradientUnits="userSpaceOnUse" x1="47.3276" y1="70.5625" x2="187.9388" y2="67.8994">
			<stop  offset="0" style="stop-color:#858585"/>
			<stop  offset="1" style="stop-color:#595959"/>
		</linearGradient>
		<rect x="123.853" y="62.383" clip-path="url(#SVGID_29_)" fill="url(#SVGID_30_)" width="14.104" height="13.191"/>
	</g>
	<linearGradient id="SVGID_31_" gradientUnits="userSpaceOnUse" x1="46.6519" y1="34.7437" x2="187.2566" y2="32.0807">
		<stop  offset="0" style="stop-color:#858585"/>
		<stop  offset="1" style="stop-color:#595959"/>
	</linearGradient>
	<path id="SVGID_18_" fill="url(#SVGID_31_)" d="M94.454,40.026c-0.049,0.091-0.093,0.184-0.135,0.276
		c1.078-0.014,2.154-0.042,3.224-0.071c0.044-0.071,0.078-0.142,0.127-0.205c2.523-4.271,6.263-7.736,10.747-9.911v-3.004
		C102.261,29.443,97.245,34.104,94.454,40.026"/>
	<g>
		<defs>
			<path id="SVGID_32_" d="M94.454,40.026c-0.049,0.091-0.093,0.184-0.135,0.276c1.078-0.014,2.154-0.042,3.224-0.071
				c0.044-0.071,0.078-0.142,0.127-0.205c2.523-4.271,6.263-7.736,10.747-9.911v-3.004C102.261,29.443,97.245,34.104,94.454,40.026"
				/>
		</defs>
		<linearGradient id="SVGID_33_" gradientUnits="userSpaceOnUse" x1="46.6519" y1="34.7437" x2="187.2566" y2="32.0807">
			<stop  offset="0" style="stop-color:#858585"/>
			<stop  offset="1" style="stop-color:#595959"/>
		</linearGradient>
		<use xlink:href="#SVGID_32_"  overflow="visible" fill="url(#SVGID_33_)"/>
		<clipPath id="SVGID_34_">
			<use xlink:href="#SVGID_32_"  overflow="visible"/>
		</clipPath>
		<linearGradient id="SVGID_35_" gradientUnits="userSpaceOnUse" x1="46.6499" y1="34.7427" x2="187.26" y2="32.0796">
			<stop  offset="0" style="stop-color:#858585"/>
			<stop  offset="1" style="stop-color:#595959"/>
		</linearGradient>
		<rect x="94.319" y="27.111" clip-path="url(#SVGID_34_)" fill="url(#SVGID_35_)" width="14.098" height="13.191"/>
	</g>
	<linearGradient id="SVGID_36_" gradientUnits="userSpaceOnUse" x1="46.6606" y1="35.3022" x2="187.2694" y2="32.6392">
		<stop  offset="0" style="stop-color:#858585"/>
		<stop  offset="1" style="stop-color:#595959"/>
	</linearGradient>
	<path id="SVGID_20_" fill="url(#SVGID_36_)" d="M123.853,30.116c4.492,2.174,8.231,5.639,10.755,9.911
		c0.048,0.063,0.084,0.134,0.127,0.205c1.069,0.028,2.146,0.057,3.223,0.071c-0.043-0.092-0.085-0.185-0.134-0.276
		c-2.792-5.922-7.807-10.583-13.97-12.915L123.853,30.116L123.853,30.116z"/>
	<g>
		<defs>
			<path id="SVGID_37_" d="M123.853,30.116c4.492,2.174,8.231,5.639,10.755,9.911c0.048,0.063,0.084,0.134,0.127,0.205
				c1.069,0.028,2.146,0.057,3.223,0.071c-0.043-0.092-0.085-0.185-0.134-0.276c-2.792-5.922-7.807-10.583-13.97-12.915
				L123.853,30.116L123.853,30.116z"/>
		</defs>
		<linearGradient id="SVGID_38_" gradientUnits="userSpaceOnUse" x1="46.6606" y1="35.3022" x2="187.2694" y2="32.6392">
			<stop  offset="0" style="stop-color:#858585"/>
			<stop  offset="1" style="stop-color:#595959"/>
		</linearGradient>
		<use xlink:href="#SVGID_37_"  overflow="visible" fill="url(#SVGID_38_)"/>
		<clipPath id="SVGID_39_">
			<use xlink:href="#SVGID_37_"  overflow="visible"/>
		</clipPath>
		<linearGradient id="SVGID_40_" gradientUnits="userSpaceOnUse" x1="46.6626" y1="35.3022" x2="187.2687" y2="32.6393">
			<stop  offset="0" style="stop-color:#858585"/>
			<stop  offset="1" style="stop-color:#595959"/>
		</linearGradient>
		<rect x="123.853" y="27.111" clip-path="url(#SVGID_39_)" fill="url(#SVGID_40_)" width="14.104" height="13.191"/>
	</g>
	<linearGradient id="SVGID_41_" gradientUnits="userSpaceOnUse" x1="47.3184" y1="70.002" x2="187.9261" y2="67.3389">
		<stop  offset="0" style="stop-color:#858585"/>
		<stop  offset="1" style="stop-color:#595959"/>
	</linearGradient>
	<path id="SVGID_22_" fill="url(#SVGID_41_)" d="M94.49,62.731c2.797,5.885,7.792,10.519,13.927,12.843V72.57
		c-4.456-2.161-8.183-5.603-10.704-9.839c-0.063-0.093-0.113-0.186-0.17-0.277c-1.069-0.029-2.146-0.057-3.224-0.072
		C94.376,62.504,94.426,62.616,94.49,62.731"/>
	<g>
		<defs>
			<path id="SVGID_42_" d="M94.49,62.731c2.797,5.885,7.792,10.519,13.927,12.843V72.57c-4.456-2.161-8.183-5.603-10.704-9.839
				c-0.063-0.093-0.113-0.186-0.17-0.277c-1.069-0.029-2.146-0.057-3.224-0.072C94.376,62.504,94.426,62.616,94.49,62.731"/>
		</defs>
		<linearGradient id="SVGID_43_" gradientUnits="userSpaceOnUse" x1="47.3184" y1="70.002" x2="187.9261" y2="67.3389">
			<stop  offset="0" style="stop-color:#858585"/>
			<stop  offset="1" style="stop-color:#595959"/>
		</linearGradient>
		<use xlink:href="#SVGID_42_"  overflow="visible" fill="url(#SVGID_43_)"/>
		<clipPath id="SVGID_44_">
			<use xlink:href="#SVGID_42_"  overflow="visible"/>
		</clipPath>
		<linearGradient id="SVGID_45_" gradientUnits="userSpaceOnUse" x1="47.3154" y1="70.0029" x2="187.9307" y2="67.3398">
			<stop  offset="0" style="stop-color:#858585"/>
			<stop  offset="1" style="stop-color:#595959"/>
		</linearGradient>
		<rect x="94.319" y="62.383" clip-path="url(#SVGID_44_)" fill="url(#SVGID_45_)" width="14.098" height="13.191"/>
	</g>
	<linearGradient id="SVGID_46_" gradientUnits="userSpaceOnUse" x1="47.3306" y1="70.5605" x2="187.9373" y2="67.8975">
		<stop  offset="0" style="stop-color:#858585"/>
		<stop  offset="1" style="stop-color:#595959"/>
	</linearGradient>
	<path id="SVGID_24_" fill="url(#SVGID_46_)" d="M134.734,62.454c-0.058,0.094-0.105,0.186-0.17,0.277
		c-2.522,4.237-6.247,7.678-10.711,9.84v3.004c6.143-2.324,11.137-6.958,13.935-12.844c0.063-0.114,0.111-0.226,0.169-0.347
		C136.881,62.397,135.802,62.426,134.734,62.454"/>
	<g>
		<defs>
			<path id="SVGID_47_" d="M134.734,62.454c-0.058,0.094-0.105,0.186-0.17,0.277c-2.522,4.237-6.247,7.678-10.711,9.84v3.004
				c6.143-2.324,11.137-6.958,13.935-12.844c0.063-0.114,0.111-0.226,0.169-0.347C136.881,62.397,135.802,62.426,134.734,62.454"/>
		</defs>
		<linearGradient id="SVGID_48_" gradientUnits="userSpaceOnUse" x1="47.3306" y1="70.5605" x2="187.9373" y2="67.8975">
			<stop  offset="0" style="stop-color:#858585"/>
			<stop  offset="1" style="stop-color:#595959"/>
		</linearGradient>
		<use xlink:href="#SVGID_47_"  overflow="visible" fill="url(#SVGID_48_)"/>
		<clipPath id="SVGID_49_">
			<use xlink:href="#SVGID_47_"  overflow="visible"/>
		</clipPath>
		<linearGradient id="SVGID_50_" gradientUnits="userSpaceOnUse" x1="47.3276" y1="70.5625" x2="187.9388" y2="67.8994">
			<stop  offset="0" style="stop-color:#858585"/>
			<stop  offset="1" style="stop-color:#595959"/>
		</linearGradient>
		<rect x="123.853" y="62.383" clip-path="url(#SVGID_49_)" fill="url(#SVGID_50_)" width="14.104" height="13.191"/>
	</g>
	<linearGradient id="SVGID_51_" gradientUnits="userSpaceOnUse" x1="46.9653" y1="51.2788" x2="187.5694" y2="48.6159">
		<stop  offset="0" style="stop-color:#858585"/>
		<stop  offset="1" style="stop-color:#595959"/>
	</linearGradient>
	<path fill="url(#SVGID_51_)" d="M55.506,51.084c0,0.066,0,0.131,0,0.195c0,2.208-0.649,4.114-2.229,5.695
		c-1.581,1.558-3.465,2.359-5.694,2.359c-2.209,0-4.114-0.801-5.694-2.359c-1.581-1.581-2.361-3.487-2.361-5.695
		c0-2.229,0.78-4.135,2.361-5.694c1.58-1.581,3.484-2.383,5.694-2.383c2.229,0,4.113,0.802,5.694,2.383l-3.465,3.16
		c-0.649-0.649-1.298-0.844-2.229-0.844c-0.931,0-1.732,0.324-2.403,0.996c-0.65,0.649-0.976,1.451-0.976,2.382
		c0,0.929,0.326,1.731,0.976,2.403c0.67,0.648,1.472,0.974,2.403,0.974s1.732-0.326,2.381-0.974
		c0.173-0.173,0.325-0.346,0.456-0.542h-2.599v-2.966h7.687C55.506,50.174,55.506,50.868,55.506,51.084z"/>
	<linearGradient id="SVGID_52_" gradientUnits="userSpaceOnUse" x1="46.9712" y1="51.5278" x2="187.5685" y2="48.865">
		<stop  offset="0" style="stop-color:#858585"/>
		<stop  offset="1" style="stop-color:#595959"/>
	</linearGradient>
	<path fill="url(#SVGID_52_)" d="M67.069,58.75h-9.44V43.723h4.655v10.35h4.785V58.75z"/>
	<linearGradient id="SVGID_53_" gradientUnits="userSpaceOnUse" x1="46.9756" y1="51.8228" x2="187.582" y2="49.1598">
		<stop  offset="0" style="stop-color:#858585"/>
		<stop  offset="1" style="stop-color:#595959"/>
	</linearGradient>
	<path fill="url(#SVGID_53_)" d="M81.988,56.974c-1.58,1.558-3.464,2.359-5.694,2.359c-2.229,0-4.114-0.801-5.694-2.359
		c-1.559-1.581-2.36-3.487-2.36-5.695c0-2.229,0.801-4.135,2.36-5.694c1.58-1.581,3.464-2.383,5.694-2.383
		c2.23,0,4.114,0.802,5.694,2.383c1.58,1.559,2.381,3.463,2.381,5.694C84.369,53.486,83.568,55.393,81.988,56.974z M78.674,48.897
		c-0.67-0.671-1.45-0.996-2.38-0.996c-0.953,0-1.732,0.325-2.404,0.996c-0.649,0.65-0.974,1.452-0.974,2.381
		c0,0.931,0.325,1.732,0.974,2.405c0.671,0.647,1.451,0.973,2.404,0.973c0.93,0,1.71-0.326,2.38-0.973
		c0.695-0.673,1.019-1.474,1.019-2.405C79.692,50.349,79.367,49.547,78.674,48.897z"/>
	<linearGradient id="SVGID_54_" gradientUnits="userSpaceOnUse" x1="46.981" y1="52.0708" x2="187.586" y2="49.4078">
		<stop  offset="0" style="stop-color:#858585"/>
		<stop  offset="1" style="stop-color:#595959"/>
	</linearGradient>
	<path fill="url(#SVGID_54_)" d="M99.7,54.007c0,1.278-0.499,2.49-1.365,3.335c-0.844,0.866-2.014,1.407-3.94,1.407h-8.01V43.745
		l6.82-0.022c1.992,0,2.901,0.476,3.79,1.364c0.866,0.887,1.126,1.948,1.126,3.183c0,1.039-0.325,1.731-0.671,2.035
		c0.216,0.022,0.563,0.131,0.887,0.455C99.245,51.669,99.7,52.709,99.7,54.007z M90.908,47.187v2.187h2.122
		c0.456,0,0.758-0.151,0.931-0.324c0.194-0.195,0.325-0.476,0.325-0.779c0-0.606-0.477-1.083-1.082-1.083H90.908L90.908,47.187z
		 M95.521,54.007c0-0.627-0.52-1.125-1.125-1.125h-3.487v2.294h3.205c0.542,0,0.866-0.152,1.061-0.346
		C95.391,54.613,95.521,54.332,95.521,54.007z"/>
	<linearGradient id="SVGID_55_" gradientUnits="userSpaceOnUse" x1="46.9873" y1="52.4556" x2="187.5933" y2="49.7926">
		<stop  offset="0" style="stop-color:#858585"/>
		<stop  offset="1" style="stop-color:#595959"/>
	</linearGradient>
	<path fill="url(#SVGID_55_)" d="M111.132,56.778h-4.786l-0.693,1.992l-4.937-0.021l5.218-15.026h5.586l5.217,15.026h-4.915
		L111.132,56.778z M109.79,52.946l-1.061-3.053l-1.062,3.053H109.79z"/>
	<linearGradient id="SVGID_56_" gradientUnits="userSpaceOnUse" x1="46.9922" y1="52.6802" x2="187.5966" y2="50.0172">
		<stop  offset="0" style="stop-color:#858585"/>
		<stop  offset="1" style="stop-color:#595959"/>
	</linearGradient>
	<path fill="url(#SVGID_56_)" d="M127.935,58.75h-9.44V43.723h4.655v10.35h4.785V58.75z"/>
	<linearGradient id="SVGID_57_" gradientUnits="userSpaceOnUse" x1="46.9946" y1="52.8882" x2="187.6029" y2="50.2251">
		<stop  offset="0" style="stop-color:#858585"/>
		<stop  offset="1" style="stop-color:#595959"/>
	</linearGradient>
	<path fill="url(#SVGID_57_)" d="M129.788,43.597h4.695l3.44,9.587l3.44-9.587h4.609l-6.146,15.256h-3.895L129.788,43.597z"/>
	<linearGradient id="SVGID_58_" gradientUnits="userSpaceOnUse" x1="46.9873" y1="53.1978" x2="187.6107" y2="50.5344">
		<stop  offset="0" style="stop-color:#858585"/>
		<stop  offset="1" style="stop-color:#595959"/>
	</linearGradient>
	<path fill="url(#SVGID_58_)" d="M147.878,43.597h12.185v3.571h-8.027v2.293h7.271v3.311h-7.271v2.403h8.135v3.569h-12.292V43.597z"
		/>
	<linearGradient id="SVGID_59_" gradientUnits="userSpaceOnUse" x1="47.002" y1="53.4722" x2="187.6129" y2="50.8091">
		<stop  offset="0" style="stop-color:#858585"/>
		<stop  offset="1" style="stop-color:#595959"/>
	</linearGradient>
	<path fill="url(#SVGID_59_)" d="M162.747,43.597h4.197v11.469h7.336v3.678h-11.533V43.597z"/>
	<linearGradient id="SVGID_60_" gradientUnits="userSpaceOnUse" x1="47.0098" y1="53.769" x2="187.6176" y2="51.106">
		<stop  offset="0" style="stop-color:#858585"/>
		<stop  offset="1" style="stop-color:#595959"/>
	</linearGradient>
	<path fill="url(#SVGID_60_)" d="M175.99,51.214V51.17c0-4.35,3.506-7.877,8.181-7.877s8.137,3.484,8.137,7.833v0.045
		c0,4.35-3.506,7.876-8.182,7.876C179.453,59.048,175.99,55.565,175.99,51.214z M188.022,51.214V51.17
		c0-2.186-1.578-4.09-3.896-4.09c-2.292,0-3.828,1.861-3.828,4.046v0.044c0,2.185,1.579,4.09,3.873,4.09
		C186.485,55.26,188.022,53.4,188.022,51.214z"/>
</g>
</svg>
