<?xml version="1.0" encoding="utf-8"?>
<!-- Generator: Adobe Illustrator 15.1.0, SVG Export Plug-In . SVG Version: 6.00 Build 0)  -->
<!DOCTYPE svg PUBLIC "-//W3C//DTD SVG 1.1//EN" "http://www.w3.org/Graphics/SVG/1.1/DTD/svg11.dtd">
<svg version="1.1" id="Calque_1" xmlns="http://www.w3.org/2000/svg" xmlns:xlink="http://www.w3.org/1999/xlink" x="0px" y="0px"
	 width="180px" height="110px" viewBox="37.5 13 180 110" enable-background="new 37.5 13 180 110" xml:space="preserve">
<g id="typo" display="none">
	<g display="inline">
		<text transform="matrix(1 0 0 1 18.4897 79.2441)" fill="#FFFFFF" font-family="'DOCK11-Heavy'" font-size="30.5657">G</text>
		<text transform="matrix(1 0 0 1 43.3394 79.2441)" fill="#FFFFFF" font-family="'DOCK11-Heavy'" font-size="30.5657">L</text>
		<text transform="matrix(1 0 0 1 59.1401 79.2441)" fill="#FFFFFF" font-family="'DOCK11-Heavy'" font-size="30.5657">OBAL</text>
		<text transform="matrix(1 0 0 1 146.2686 79.2402)" fill="#A9C944" font-family="'GothamHTF-Black'" font-size="30.549">VELO</text>
	</g>
</g>
<g>
	<g id="Calque_1_1_">
		<g>
			<g>
				<g>
					<defs>
						<path id="SVGID_1_" d="M125.65,94.483c0-1.127,0.917-2.035,2.042-2.035c1.126,0,2.041,0.908,2.041,2.035
							c0,1.125-0.914,2.04-2.041,2.04C126.567,96.523,125.65,95.608,125.65,94.483 M156.585,81.661
							c-3.896,8.479-11.355,14.976-20.469,17.576c-0.729-0.252-1.393-0.664-1.928-1.199c-0.916-0.915-1.474-2.171-1.474-3.555
							c0-2.771-2.244-5.022-5.022-5.022c-2.771,0-5.022,2.252-5.022,5.022c0,2.363-1.636,4.341-3.831,4.876
							c-9.315-2.513-16.961-9.081-20.914-17.698h-6.593c0.032,0.089,0.064,0.169,0.097,0.257l-2.276,2.82
							c0.016,0.023,0.024,0.049,0.04,0.08l1.118,2.35c0.009,0.016,0.017,0.023,0.017,0.032l3.645,0.049
							c0.616,1.076,1.289,2.113,2.001,3.126l-1.499,3.297l1.781,2.139l3.531-0.86c0.86,0.876,1.75,1.71,2.682,2.504l-0.632,3.564
							l2.236,1.628c0.017,0.009,0.024,0.017,0.04,0.023l3.2-1.708c1.037,0.641,2.106,1.223,3.199,1.758l0.276,3.604l2.632,1.038
							l2.673-2.448c1.15,0.356,2.325,0.656,3.524,0.909l1.158,3.417h0.008l2.811,0.349l1.976-3.029
							c0.6,0.023,1.207,0.041,1.814,0.041c0.607,0,1.208-0.018,1.806-0.041l1.976,3.029l2.763-0.341c0.016,0,0.041,0,0.065-0.008
							l1.157-3.425c1.199-0.245,2.373-0.544,3.523-0.899l2.675,2.446c0.12-0.041,0.242-0.081,0.362-0.131l2.261-0.907l0.275-3.603
							c1.095-0.535,2.164-1.118,3.199-1.758l3.2,1.709c0.023-0.009,0.049-0.033,0.081-0.049l2.154-1.564
							c0.018-0.017,0.032-0.023,0.049-0.04l-0.64-3.564c0.932-0.793,1.831-1.628,2.681-2.504l3.533,0.86l1.781-2.139l-1.5-3.297
							c0.723-1.004,1.386-2.05,2.009-3.126l3.637-0.049c0.008-0.009,0.008-0.017,0.017-0.032l1.158-2.438l-2.267-2.819
							c0.031-0.08,0.063-0.16,0.088-0.251h-6.846V81.661z M125.65,42.238c0-1.126,0.917-2.042,2.042-2.042
							c1.126,0,2.041,0.916,2.041,2.042c0,1.126-0.914,2.033-2.041,2.033C126.567,44.271,125.65,43.364,125.65,42.238
							 M126.129,26.41l-1.579,3.256c-1.362,0.097-2.706,0.267-4.018,0.502l-2.349-2.762l-2.422,0.625l-0.721,3.556
							c-1.288,0.43-2.535,0.932-3.759,1.491l-2.949-2.09l-2.163,1.191c-0.016,0.016-0.033,0.024-0.049,0.033l0.186,3.621
							c-1.126,0.737-2.203,1.522-3.24,2.365l-3.369-1.279l-1.798,1.685c-0.016,0.017-0.041,0.04-0.056,0.057l1.076,3.458
							c-0.898,0.98-1.741,2.009-2.526,3.079l-3.589-0.414c-0.017,0.024-0.033,0.05-0.049,0.073l-1.33,2.106l1.905,3.085
							c-0.616,1.16-1.167,2.35-1.66,3.573l-3.581,0.502c-0.017,0.016-0.017,0.04-0.024,0.064l-0.487,1.515h9.932
							c3.742-8.877,11.348-15.722,20.703-18.452c2.512,0.284,4.456,2.406,4.456,4.99c0,2.77,2.251,5.022,5.021,5.022
							c2.778,0,5.023-2.252,5.023-5.022c0-1.393,0.557-2.649,1.473-3.557c0.656-0.656,1.499-1.126,2.438-1.344
							c9.211,2.794,16.679,9.59,20.372,18.362h10.181l-0.485-1.515c0-0.024-0.009-0.049-0.025-0.064l-3.579-0.502
							c-0.494-1.223-1.045-2.413-1.66-3.573l1.903-3.085l-1.329-2.106c-0.018-0.023-0.032-0.049-0.041-0.073l-3.596,0.414
							c-0.786-1.069-1.628-2.099-2.527-3.079l1.077-3.458c-0.017-0.017-0.032-0.04-0.057-0.057l-1.798-1.685l-3.362,1.279
							c-1.035-0.842-2.121-1.628-3.248-2.365l0.188-3.621c-0.033-0.018-0.075-0.041-0.106-0.057l-2.098-1.167l-2.956,2.089
							c-1.215-0.558-2.473-1.061-3.76-1.49l-0.721-3.556l-2.365-0.607c-0.017-0.008-0.033-0.008-0.057-0.017l-2.341,2.762
							c-1.32-0.235-2.656-0.405-4.018-0.501l-1.588-3.257L126.129,26.41L126.129,26.41z"/>
					</defs>
					<clipPath id="SVGID_2_">
						<use xlink:href="#SVGID_1_"  overflow="visible"/>
					</clipPath>
					
						<linearGradient id="SVGID_3_" gradientUnits="userSpaceOnUse" x1="-211.8354" y1="97.8184" x2="-211.0254" y2="97.8184" gradientTransform="matrix(98.27 0 0 98.27 20904.6543 -9544.5469)">
						<stop  offset="0" style="stop-color:#EDEDED"/>
						<stop  offset="1" style="stop-color:#9D9D9C"/>
					</linearGradient>
					<rect x="87.581" y="26.41" clip-path="url(#SVGID_2_)" fill="url(#SVGID_3_)" width="79.599" height="83.178"/>
				</g>
			</g>
			<g>
				<g>
					<defs>
						<path id="SVGID_4_" d="M102.331,55.7c-0.056,0.104-0.105,0.21-0.153,0.316c1.231-0.016,2.462-0.049,3.686-0.082
							c0.05-0.082,0.089-0.162,0.146-0.234c2.884-4.884,7.161-8.846,12.289-11.332v-3.436
							C111.258,43.599,105.523,48.929,102.331,55.7"/>
					</defs>
					<clipPath id="SVGID_5_">
						<use xlink:href="#SVGID_4_"  overflow="visible"/>
					</clipPath>
					
						<linearGradient id="SVGID_6_" gradientUnits="userSpaceOnUse" x1="-211.2427" y1="111.1152" x2="-210.4326" y2="111.1152" gradientTransform="matrix(19.9 0 0 19.9 4305.9126 -2162.7153)">
						<stop  offset="0" style="stop-color:#EDEDED"/>
						<stop  offset="1" style="stop-color:#9D9D9C"/>
					</linearGradient>
					<rect x="102.178" y="40.933" clip-path="url(#SVGID_5_)" fill="url(#SVGID_6_)" width="16.119" height="15.083"/>
				</g>
			</g>
			<g>
				<g>
					<defs>
						<path id="SVGID_7_" d="M135.946,44.368c5.136,2.486,9.411,6.448,12.297,11.332c0.055,0.072,0.097,0.153,0.146,0.234
							c1.223,0.033,2.454,0.065,3.685,0.082c-0.049-0.105-0.097-0.212-0.152-0.316c-3.192-6.771-8.927-12.102-15.974-14.768
							L135.946,44.368L135.946,44.368z"/>
					</defs>
					<clipPath id="SVGID_8_">
						<use xlink:href="#SVGID_7_"  overflow="visible"/>
					</clipPath>
					
						<linearGradient id="SVGID_9_" gradientUnits="userSpaceOnUse" x1="-211.6406" y1="111.1074" x2="-210.8306" y2="111.1074" gradientTransform="matrix(19.91 0 0 19.91 4349.709 -2163.6611)">
						<stop  offset="0" style="stop-color:#EDEDED"/>
						<stop  offset="1" style="stop-color:#9D9D9C"/>
					</linearGradient>
					<rect x="135.946" y="40.933" clip-path="url(#SVGID_8_)" fill="url(#SVGID_9_)" width="16.127" height="15.083"/>
				</g>
			</g>
			<g>
				<g>
					<defs>
						<path id="SVGID_10_" d="M102.372,81.661c3.199,6.729,8.91,12.027,15.925,14.685v-3.435c-5.095-2.47-9.356-6.406-12.239-11.25
							c-0.073-0.106-0.129-0.212-0.194-0.316c-1.223-0.034-2.454-0.065-3.686-0.082C102.243,81.401,102.299,81.53,102.372,81.661"/>
					</defs>
					<clipPath id="SVGID_11_">
						<use xlink:href="#SVGID_10_"  overflow="visible"/>
					</clipPath>
					
						<linearGradient id="SVGID_12_" gradientUnits="userSpaceOnUse" x1="-211.2427" y1="110.6396" x2="-210.4326" y2="110.6396" gradientTransform="matrix(19.9 0 0 19.9 4305.9126 -2112.9341)">
						<stop  offset="0" style="stop-color:#EDEDED"/>
						<stop  offset="1" style="stop-color:#9D9D9C"/>
					</linearGradient>
					<rect x="102.178" y="81.264" clip-path="url(#SVGID_11_)" fill="url(#SVGID_12_)" width="16.119" height="15.082"/>
				</g>
			</g>
			<g>
				<g>
					<defs>
						<path id="SVGID_13_" d="M148.389,81.345c-0.065,0.106-0.121,0.212-0.194,0.316c-2.885,4.844-7.144,8.78-12.247,11.251v3.435
							c7.023-2.657,12.733-7.955,15.934-14.686c0.072-0.13,0.127-0.259,0.192-0.396C150.843,81.279,149.61,81.312,148.389,81.345"/>
					</defs>
					<clipPath id="SVGID_14_">
						<use xlink:href="#SVGID_13_"  overflow="visible"/>
					</clipPath>
					
						<linearGradient id="SVGID_15_" gradientUnits="userSpaceOnUse" x1="-211.6406" y1="110.6318" x2="-210.8306" y2="110.6318" gradientTransform="matrix(19.91 0 0 19.91 4349.709 -2113.8799)">
						<stop  offset="0" style="stop-color:#EDEDED"/>
						<stop  offset="1" style="stop-color:#9D9D9C"/>
					</linearGradient>
					<rect x="135.946" y="81.264" clip-path="url(#SVGID_14_)" fill="url(#SVGID_15_)" width="16.127" height="15.082"/>
				</g>
			</g>
		</g>
	</g>
	<g id="Calque_4">
		<g opacity="0.7">
			<g>
				<g>
					<path id="SVGID_16_" fill="#9D9D9C" d="M125.65,94.483c0-1.127,0.917-2.035,2.042-2.035c1.126,0,2.041,0.908,2.041,2.035
						c0,1.125-0.914,2.04-2.041,2.04C126.567,96.523,125.65,95.608,125.65,94.483 M156.585,81.661
						c-3.896,8.479-11.355,14.976-20.469,17.576c-0.729-0.252-1.393-0.664-1.928-1.199c-0.916-0.915-1.474-2.171-1.474-3.555
						c0-2.771-2.244-5.022-5.022-5.022c-2.771,0-5.022,2.252-5.022,5.022c0,2.363-1.636,4.341-3.831,4.876
						c-9.315-2.513-16.961-9.081-20.914-17.698h-6.593c0.032,0.089,0.064,0.169,0.097,0.257l-2.276,2.82
						c0.016,0.023,0.024,0.049,0.04,0.08l1.118,2.35c0.009,0.016,0.017,0.023,0.017,0.032l3.645,0.049
						c0.616,1.076,1.289,2.113,2.001,3.126l-1.499,3.297l1.781,2.139l3.531-0.86c0.86,0.876,1.75,1.71,2.682,2.504l-0.632,3.564
						l2.236,1.628c0.017,0.009,0.024,0.017,0.04,0.023l3.2-1.708c1.037,0.641,2.106,1.223,3.199,1.758l0.276,3.604l2.632,1.038
						l2.673-2.448c1.15,0.356,2.325,0.656,3.524,0.909l1.158,3.417h0.008l2.811,0.349l1.976-3.029
						c0.6,0.023,1.207,0.041,1.814,0.041c0.607,0,1.208-0.018,1.806-0.041l1.976,3.029l2.763-0.341c0.016,0,0.041,0,0.065-0.008
						l1.157-3.425c1.199-0.245,2.373-0.544,3.523-0.899l2.675,2.446c0.12-0.041,0.242-0.081,0.362-0.131l2.261-0.907l0.275-3.603
						c1.095-0.535,2.164-1.118,3.199-1.758l3.2,1.709c0.023-0.009,0.049-0.033,0.081-0.049l2.154-1.564
						c0.018-0.017,0.032-0.023,0.049-0.04l-0.64-3.564c0.932-0.793,1.831-1.628,2.681-2.504l3.533,0.86l1.781-2.139l-1.5-3.297
						c0.723-1.004,1.386-2.05,2.009-3.126l3.637-0.049c0.008-0.009,0.008-0.017,0.017-0.032l1.158-2.438l-2.267-2.819
						c0.031-0.08,0.063-0.16,0.088-0.251h-6.846V81.661z M125.65,42.238c0-1.126,0.917-2.042,2.042-2.042
						c1.126,0,2.041,0.916,2.041,2.042c0,1.126-0.914,2.033-2.041,2.033C126.567,44.271,125.65,43.364,125.65,42.238 M126.129,26.41
						l-1.579,3.256c-1.362,0.097-2.706,0.267-4.018,0.502l-2.349-2.762l-2.422,0.625l-0.721,3.556
						c-1.288,0.43-2.535,0.932-3.759,1.491l-2.949-2.09l-2.163,1.191c-0.016,0.016-0.033,0.024-0.049,0.033l0.186,3.621
						c-1.126,0.737-2.203,1.522-3.24,2.365l-3.369-1.279l-1.798,1.685c-0.016,0.017-0.041,0.04-0.056,0.057l1.076,3.458
						c-0.898,0.98-1.741,2.009-2.526,3.079l-3.589-0.414c-0.017,0.024-0.033,0.05-0.049,0.073l-1.33,2.106l1.905,3.085
						c-0.616,1.16-1.167,2.35-1.66,3.573l-3.581,0.502c-0.017,0.016-0.017,0.04-0.024,0.064l-0.487,1.515h9.932
						c3.742-8.877,11.348-15.722,20.703-18.452c2.512,0.284,4.456,2.406,4.456,4.99c0,2.77,2.251,5.022,5.021,5.022
						c2.778,0,5.023-2.252,5.023-5.022c0-1.393,0.557-2.649,1.473-3.557c0.656-0.656,1.499-1.126,2.438-1.344
						c9.211,2.794,16.679,9.59,20.372,18.362h10.181l-0.485-1.515c0-0.024-0.009-0.049-0.025-0.064l-3.579-0.502
						c-0.494-1.223-1.045-2.413-1.66-3.573l1.903-3.085l-1.329-2.106c-0.018-0.023-0.032-0.049-0.041-0.073l-3.596,0.414
						c-0.786-1.069-1.628-2.099-2.527-3.079l1.077-3.458c-0.017-0.017-0.032-0.04-0.057-0.057l-1.798-1.685l-3.362,1.279
						c-1.035-0.842-2.121-1.628-3.248-2.365l0.188-3.621c-0.033-0.018-0.075-0.041-0.106-0.057l-2.098-1.167l-2.956,2.089
						c-1.215-0.558-2.473-1.061-3.76-1.49l-0.721-3.556l-2.365-0.607c-0.017-0.008-0.033-0.008-0.057-0.017l-2.341,2.762
						c-1.32-0.235-2.656-0.405-4.018-0.501l-1.588-3.257L126.129,26.41L126.129,26.41z"/>
				</g>
				<g>
					<defs>
						<path id="SVGID_17_" d="M125.65,94.483c0-1.127,0.917-2.035,2.042-2.035c1.126,0,2.041,0.908,2.041,2.035
							c0,1.125-0.914,2.04-2.041,2.04C126.567,96.523,125.65,95.608,125.65,94.483 M156.585,81.661
							c-3.896,8.479-11.355,14.976-20.469,17.576c-0.729-0.252-1.393-0.664-1.928-1.199c-0.916-0.915-1.474-2.171-1.474-3.555
							c0-2.771-2.244-5.022-5.022-5.022c-2.771,0-5.022,2.252-5.022,5.022c0,2.363-1.636,4.341-3.831,4.876
							c-9.315-2.513-16.961-9.081-20.914-17.698h-6.593c0.032,0.089,0.064,0.169,0.097,0.257l-2.276,2.82
							c0.016,0.023,0.024,0.049,0.04,0.08l1.118,2.35c0.009,0.016,0.017,0.023,0.017,0.032l3.645,0.049
							c0.616,1.076,1.289,2.113,2.001,3.126l-1.499,3.297l1.781,2.139l3.531-0.86c0.86,0.876,1.75,1.71,2.682,2.504l-0.632,3.564
							l2.236,1.628c0.017,0.009,0.024,0.017,0.04,0.023l3.2-1.708c1.037,0.641,2.106,1.223,3.199,1.758l0.276,3.604l2.632,1.038
							l2.673-2.448c1.15,0.356,2.325,0.656,3.524,0.909l1.158,3.417h0.008l2.811,0.349l1.976-3.029
							c0.6,0.023,1.207,0.041,1.814,0.041c0.607,0,1.208-0.018,1.806-0.041l1.976,3.029l2.763-0.341c0.016,0,0.041,0,0.065-0.008
							l1.157-3.425c1.199-0.245,2.373-0.544,3.523-0.899l2.675,2.446c0.12-0.041,0.242-0.081,0.362-0.131l2.261-0.907l0.275-3.603
							c1.095-0.535,2.164-1.118,3.199-1.758l3.2,1.709c0.023-0.009,0.049-0.033,0.081-0.049l2.154-1.564
							c0.018-0.017,0.032-0.023,0.049-0.04l-0.64-3.564c0.932-0.793,1.831-1.628,2.681-2.504l3.533,0.86l1.781-2.139l-1.5-3.297
							c0.723-1.004,1.386-2.05,2.009-3.126l3.637-0.049c0.008-0.009,0.008-0.017,0.017-0.032l1.158-2.438l-2.267-2.819
							c0.031-0.08,0.063-0.16,0.088-0.251h-6.846V81.661z M125.65,42.238c0-1.126,0.917-2.042,2.042-2.042
							c1.126,0,2.041,0.916,2.041,2.042c0,1.126-0.914,2.033-2.041,2.033C126.567,44.271,125.65,43.364,125.65,42.238
							 M126.129,26.41l-1.579,3.256c-1.362,0.097-2.706,0.267-4.018,0.502l-2.349-2.762l-2.422,0.625l-0.721,3.556
							c-1.288,0.43-2.535,0.932-3.759,1.491l-2.949-2.09l-2.163,1.191c-0.016,0.016-0.033,0.024-0.049,0.033l0.186,3.621
							c-1.126,0.737-2.203,1.522-3.24,2.365l-3.369-1.279l-1.798,1.685c-0.016,0.017-0.041,0.04-0.056,0.057l1.076,3.458
							c-0.898,0.98-1.741,2.009-2.526,3.079l-3.589-0.414c-0.017,0.024-0.033,0.05-0.049,0.073l-1.33,2.106l1.905,3.085
							c-0.616,1.16-1.167,2.35-1.66,3.573l-3.581,0.502c-0.017,0.016-0.017,0.04-0.024,0.064l-0.487,1.515h9.932
							c3.742-8.877,11.348-15.722,20.703-18.452c2.512,0.284,4.456,2.406,4.456,4.99c0,2.77,2.251,5.022,5.021,5.022
							c2.778,0,5.023-2.252,5.023-5.022c0-1.393,0.557-2.649,1.473-3.557c0.656-0.656,1.499-1.126,2.438-1.344
							c9.211,2.794,16.679,9.59,20.372,18.362h10.181l-0.485-1.515c0-0.024-0.009-0.049-0.025-0.064l-3.579-0.502
							c-0.494-1.223-1.045-2.413-1.66-3.573l1.903-3.085l-1.329-2.106c-0.018-0.023-0.032-0.049-0.041-0.073l-3.596,0.414
							c-0.786-1.069-1.628-2.099-2.527-3.079l1.077-3.458c-0.017-0.017-0.032-0.04-0.057-0.057l-1.798-1.685l-3.362,1.279
							c-1.035-0.842-2.121-1.628-3.248-2.365l0.188-3.621c-0.033-0.018-0.075-0.041-0.106-0.057l-2.098-1.167l-2.956,2.089
							c-1.215-0.558-2.473-1.061-3.76-1.49l-0.721-3.556l-2.365-0.607c-0.017-0.008-0.033-0.008-0.057-0.017l-2.341,2.762
							c-1.32-0.235-2.656-0.405-4.018-0.501l-1.588-3.257L126.129,26.41L126.129,26.41z"/>
					</defs>
					<clipPath id="SVGID_19_">
						<use xlink:href="#SVGID_17_"  overflow="visible"/>
					</clipPath>
					<rect x="87.581" y="26.41" clip-path="url(#SVGID_19_)" fill="#9D9D9C" width="79.599" height="83.178"/>
				</g>
			</g>
			<g>
				<g>
					<path id="SVGID_18_" fill="#9D9D9C" d="M102.331,55.7c-0.056,0.104-0.105,0.21-0.153,0.316
						c1.231-0.016,2.462-0.049,3.686-0.082c0.05-0.082,0.089-0.162,0.146-0.234c2.884-4.884,7.161-8.846,12.289-11.332v-3.436
						C111.258,43.599,105.523,48.929,102.331,55.7"/>
				</g>
				<g>
					<defs>
						<path id="SVGID_21_" d="M102.331,55.7c-0.056,0.104-0.105,0.21-0.153,0.316c1.231-0.016,2.462-0.049,3.686-0.082
							c0.05-0.082,0.089-0.162,0.146-0.234c2.884-4.884,7.161-8.846,12.289-11.332v-3.436
							C111.258,43.599,105.523,48.929,102.331,55.7"/>
					</defs>
					<clipPath id="SVGID_23_">
						<use xlink:href="#SVGID_21_"  overflow="visible"/>
					</clipPath>
					<rect x="102.178" y="40.933" clip-path="url(#SVGID_23_)" fill="#9D9D9C" width="16.119" height="15.083"/>
				</g>
			</g>
			<g>
				<g>
					<path id="SVGID_20_" fill="#9D9D9C" d="M135.946,44.368c5.136,2.486,9.411,6.448,12.297,11.332
						c0.055,0.072,0.097,0.153,0.146,0.234c1.223,0.033,2.454,0.065,3.685,0.082c-0.049-0.105-0.097-0.212-0.152-0.316
						c-3.192-6.771-8.927-12.102-15.974-14.768L135.946,44.368L135.946,44.368z"/>
				</g>
				<g>
					<defs>
						<path id="SVGID_25_" d="M135.946,44.368c5.136,2.486,9.411,6.448,12.297,11.332c0.055,0.072,0.097,0.153,0.146,0.234
							c1.223,0.033,2.454,0.065,3.685,0.082c-0.049-0.105-0.097-0.212-0.152-0.316c-3.192-6.771-8.927-12.102-15.974-14.768
							L135.946,44.368L135.946,44.368z"/>
					</defs>
					<clipPath id="SVGID_26_">
						<use xlink:href="#SVGID_25_"  overflow="visible"/>
					</clipPath>
					<rect x="135.946" y="40.933" clip-path="url(#SVGID_26_)" fill="#9D9D9C" width="16.127" height="15.083"/>
				</g>
			</g>
			<g>
				<g>
					<path id="SVGID_22_" fill="#9D9D9C" d="M102.372,81.661c3.199,6.729,8.91,12.027,15.925,14.685v-3.435
						c-5.095-2.47-9.356-6.406-12.239-11.25c-0.073-0.106-0.129-0.212-0.194-0.316c-1.223-0.034-2.454-0.065-3.686-0.082
						C102.243,81.401,102.299,81.53,102.372,81.661"/>
				</g>
				<g>
					<defs>
						<path id="SVGID_27_" d="M102.372,81.661c3.199,6.729,8.91,12.027,15.925,14.685v-3.435c-5.095-2.47-9.356-6.406-12.239-11.25
							c-0.073-0.106-0.129-0.212-0.194-0.316c-1.223-0.034-2.454-0.065-3.686-0.082C102.243,81.401,102.299,81.53,102.372,81.661"/>
					</defs>
					<clipPath id="SVGID_28_">
						<use xlink:href="#SVGID_27_"  overflow="visible"/>
					</clipPath>
					<rect x="102.178" y="81.264" clip-path="url(#SVGID_28_)" fill="#9D9D9C" width="16.119" height="15.082"/>
				</g>
			</g>
			<g>
				<g>
					<path id="SVGID_24_" fill="#9D9D9C" d="M148.389,81.345c-0.065,0.106-0.121,0.212-0.194,0.316
						c-2.885,4.844-7.144,8.78-12.247,11.251v3.435c7.023-2.657,12.733-7.955,15.934-14.686c0.072-0.13,0.127-0.259,0.192-0.396
						C150.843,81.279,149.61,81.312,148.389,81.345"/>
				</g>
				<g>
					<defs>
						<path id="SVGID_29_" d="M148.389,81.345c-0.065,0.106-0.121,0.212-0.194,0.316c-2.885,4.844-7.144,8.78-12.247,11.251v3.435
							c7.023-2.657,12.733-7.955,15.934-14.686c0.072-0.13,0.127-0.259,0.192-0.396C150.843,81.279,149.61,81.312,148.389,81.345"/>
					</defs>
					<clipPath id="SVGID_30_">
						<use xlink:href="#SVGID_29_"  overflow="visible"/>
					</clipPath>
					<rect x="135.946" y="81.264" clip-path="url(#SVGID_30_)" fill="#9D9D9C" width="16.127" height="15.082"/>
				</g>
			</g>
		</g>
	</g>
	<g id="typo_-_copie">
		<g>
			<g>
				<path fill="#FFFFFF" d="M57.798,68.344c0,0.075,0,0.15,0,0.223c0,2.524-0.742,4.704-2.549,6.512
					c-1.808,1.781-3.962,2.697-6.511,2.697c-2.526,0-4.705-0.916-6.511-2.697c-1.807-1.808-2.699-3.987-2.699-6.512
					c0-2.549,0.892-4.729,2.699-6.511c1.806-1.807,3.985-2.724,6.511-2.724c2.549,0,4.703,0.917,6.511,2.724l-3.962,3.614
					c-0.743-0.743-1.484-0.965-2.549-0.965s-1.98,0.371-2.748,1.139c-0.743,0.743-1.115,1.659-1.115,2.724
					c0,1.062,0.372,1.979,1.115,2.748c0.767,0.741,1.683,1.113,2.748,1.113c1.065,0,1.98-0.372,2.722-1.113
					c0.199-0.198,0.372-0.396,0.521-0.62H49.01v-3.392h8.789C57.798,67.304,57.798,68.096,57.798,68.344z"/>
				<path fill="#FFFFFF" d="M71.02,77.108H60.225V59.927h5.323v11.834h5.471V77.108z"/>
				<path fill="#FFFFFF" d="M88.077,75.078c-1.807,1.781-3.961,2.697-6.511,2.697c-2.55,0-4.705-0.916-6.511-2.697
					c-1.783-1.808-2.699-3.987-2.699-6.512c0-2.549,0.916-4.729,2.699-6.511c1.806-1.807,3.961-2.724,6.511-2.724
					c2.549,0,4.704,0.917,6.511,2.724c1.806,1.782,2.723,3.96,2.723,6.511C90.8,71.091,89.883,73.271,88.077,75.078z M84.289,65.844
					c-0.767-0.768-1.659-1.139-2.722-1.139c-1.089,0-1.98,0.371-2.749,1.139c-0.743,0.742-1.114,1.659-1.114,2.723
					c0,1.064,0.372,1.98,1.114,2.75c0.768,0.74,1.66,1.113,2.749,1.113c1.063,0,1.956-0.373,2.722-1.113
					c0.793-0.77,1.165-1.686,1.165-2.75C85.452,67.503,85.081,66.586,84.289,65.844z"/>
				<path fill="#FFFFFF" d="M108.329,71.686c0,1.462-0.569,2.848-1.56,3.813c-0.966,0.99-2.303,1.609-4.505,1.609h-9.16V59.952
					l7.799-0.025c2.278,0,3.317,0.544,4.333,1.559c0.99,1.015,1.287,2.228,1.287,3.64c0,1.188-0.372,1.98-0.767,2.327
					c0.248,0.025,0.644,0.149,1.015,0.52C107.81,69.013,108.329,70.201,108.329,71.686z M98.277,63.888v2.5h2.426
					c0.521,0,0.867-0.174,1.064-0.371c0.222-0.223,0.372-0.544,0.372-0.891c0-0.693-0.545-1.238-1.237-1.238H98.277L98.277,63.888z
					 M103.551,71.686c0-0.718-0.594-1.286-1.287-1.286h-3.986v2.623h3.664c0.619,0,0.99-0.174,1.213-0.396
					C103.402,72.379,103.551,72.058,103.551,71.686z"/>
				<path fill="#FFFFFF" d="M121.401,74.854h-5.471l-0.792,2.278l-5.645-0.024l5.966-17.181h6.388l5.966,17.181h-5.62
					L121.401,74.854z M119.867,70.473l-1.213-3.49l-1.213,3.49H119.867z"/>
				<path fill="#FFFFFF" d="M140.614,77.108H129.82V59.927h5.322v11.834h5.472V77.108z"/>
			</g>
			<g>
				<path fill="#A9C944" d="M142.732,59.783h5.369l3.934,10.962l3.935-10.962h5.27l-7.027,17.444h-4.453L142.732,59.783z"/>
				<path fill="#A9C944" d="M163.418,59.783h13.932v4.083h-9.181v2.623h8.314v3.785h-8.314v2.748h9.303v4.081h-14.054V59.783z"/>
				<path fill="#A9C944" d="M180.419,59.783h4.8v13.114h8.388v4.206h-13.188V59.783z"/>
				<path fill="#A9C944" d="M195.562,68.492v-0.049c0-4.974,4.009-9.007,9.354-9.007s9.304,3.983,9.304,8.957v0.051
					c0,4.973-4.009,9.006-9.354,9.006C199.521,77.45,195.562,73.467,195.562,68.492z M209.319,68.492v-0.049
					c0-2.5-1.806-4.677-4.455-4.677c-2.621,0-4.378,2.128-4.378,4.627v0.05c0,2.499,1.806,4.676,4.429,4.676
					C207.562,73.119,209.319,70.992,209.319,68.492z"/>
			</g>
		</g>
	</g>
</g>
</svg>
